
<svg width="1361px" height="236px" viewBox="20 -1 1361 236" version="1.1" xmlns="http://www.w3.org/2000/svg" xmlns:xlink="http://www.w3.org/1999/xlink">
    <!-- Generator: Sketch 41.2 (35397) - http://www.bohemiancoding.com/sketch -->
    <desc>Created with Sketch.</desc>
    <defs></defs>
    <g id="bg-rodape" stroke="none" stroke-width="1" fill="none" fill-rule="evenodd" transform="translate(20.000000, -1.000000)">
        <path d="M229,25.2 L229,26.5 C229,26.7 229.2,26.8 229.4,26.6 L230,26 C230.1,25.9 230.1,25.8 230,25.7 L229.4,25.1 C229.3,24.9 229.1,25 229,25.2" id="Shape" fill="#767676"></path>
        <path d="M1146,25.2 L1146,26.5 C1146,26.7 1146.2,26.8 1146.4,26.6 L1147,26 C1147.1,25.9 1147.1,25.8 1147,25.7 L1146.4,25.1 C1146.3,24.9 1146.1,25 1146,25.2" id="Shape" fill="#767676"></path>
        <path d="M61.4,25.7 L61.4,25.7 C62.9,27.2 64.9,27.9 66.8,28 L67.6,28 L74.5,28 C75,28 75.4,27.6 75.4,27.2 L75.4,20.4 L75.4,19.7 C75.3,17.8 74.5,15.9 73,14.4 C73,14.4 73,14.4 73,14.3 L72.9,14.3 C71.4,12.8 69.5,12.1 67.5,12 L66.8,12 L59.9,12 C59.4,12 59,12.4 59,12.9 L59,19.6 L59,20.3 C59.1,22.3 59.9,24.2 61.4,25.6 L61.4,25.7" id="Shape" fill="#767676"></path>
        <path d="M978.4,25.7 L978.4,25.7 C979.9,27.2 981.9,27.9 983.8,28 L984.6,28 L991.5,28 C992,28 992.4,27.6 992.4,27.2 L992.4,20.4 L992.4,19.7 C992.3,17.8 991.5,15.9 990,14.4 C990,14.4 990,14.4 990,14.3 L989.9,14.3 C988.4,12.8 986.5,12.1 984.5,12 L983.8,12 L976.9,12 C976.4,12 976,12.4 976,12.9 L976,19.6 L976,20.3 C976.1,22.3 976.9,24.2 978.4,25.6 L978.4,25.7" id="Shape" fill="#767676"></path>
        <path d="M519.4,25.7 L519.4,25.7 C520.9,27.2 522.9,27.9 524.8,28 L525.6,28 L532.5,28 C533,28 533.4,27.6 533.4,27.2 L533.4,20.4 L533.4,19.7 C533.3,17.8 532.5,15.9 531,14.4 C531,14.4 531,14.4 531,14.3 L530.9,14.3 C529.4,12.8 527.5,12.1 525.5,12 L524.8,12 L517.9,12 C517.4,12 517,12.4 517,12.9 L517,19.6 L517,20.3 C517.1,22.3 517.9,24.2 519.4,25.6 L519.4,25.7" id="Shape" fill="#767676"></path>
        <path d="M145.3,31 C145.1,31 145,31.1 145,31.3 L145.7,34.2 C145.7,34.3 146,34.4 146.1,34.3 L148.5,31.9 C148.6,31.8 148.6,31.5 148.4,31.5 L145.3,31 Z" id="Shape" fill="#767676"></path>
        <path d="M1062.3,31 C1062.1,31 1062,31.1 1062,31.3 L1062.7,34.2 C1062.7,34.3 1063,34.4 1063.1,34.3 L1065.5,31.9 C1065.6,31.8 1065.6,31.5 1065.4,31.5 L1062.3,31 Z" id="Shape" fill="#767676"></path>
        <path d="M298.5,25.1 L298.1,25.6 C298,25.7 298,25.8 298.1,25.9 L298.6,26.4 C298.7,26.6 299,26.5 299,26.3 L298.9,25.2 C298.9,25 298.7,24.9 298.5,25.1" id="Shape" fill="#767676"></path>
        <path d="M1215.5,25.1 L1215.1,25.6 C1215,25.7 1215,25.8 1215.1,25.9 L1215.6,26.4 C1215.7,26.6 1216,26.5 1216,26.3 L1215.9,25.2 C1215.9,25 1215.7,24.9 1215.5,25.1" id="Shape" fill="#767676"></path>
        <path d="M4.9,37 C4.9,37 4.9,37 4.9,37.1 L4.9,37.1 C6.3,37.9 7.8,38.1 9.3,37.9 L9.8,37.8 L14.9,36.7 C15.2,36.6 15.4,36.3 15.4,35.9 L14.2,31 L14.1,30.4 C13.7,29.1 12.8,27.8 11.5,27 L11.5,26.9 L11.4,26.9 C10.1,26.1 8.5,25.8 7.1,26.1 L6.5,26.2 L1.5,27.3 C1.2,27.4 0.9,27.7 1,28.1 L2.1,33 L2.3,33.5 C2.7,34.9 3.5,36.2 4.9,37" id="Shape" fill="#767676"></path>
        <path d="M921.9,37 C921.9,37 921.9,37 921.9,37.1 L921.9,37.1 C923.3,37.9 924.8,38.1 926.3,37.9 L926.8,37.8 L931.9,36.7 C932.2,36.6 932.4,36.3 932.4,35.9 L931.2,31 L931.1,30.4 C930.7,29.1 929.8,27.8 928.5,27 L928.5,26.9 L928.4,26.9 C927.1,26.1 925.5,25.8 924.1,26.1 L923.5,26.2 L918.5,27.3 C918.2,27.4 917.9,27.7 918,28.1 L919.1,33 L919.3,33.5 C919.7,34.9 920.5,36.2 921.9,37" id="Shape" fill="#767676"></path>
        <path d="M463.9,37 C463.9,37 463.9,37 463.9,37.1 L463.9,37.1 C465.3,37.9 466.8,38.1 468.3,37.9 L468.8,37.8 L473.9,36.7 C474.2,36.6 474.4,36.3 474.4,35.9 L473.2,31 L473.1,30.4 C472.7,29.1 471.8,27.8 470.5,27 L470.5,26.9 L470.4,26.9 C469.1,26.1 467.5,25.8 466.1,26.1 L465.5,26.2 L460.5,27.3 C460.2,27.4 459.9,27.7 460,28.1 L461.1,33 L461.3,33.5 C461.7,34.9 462.5,36.2 463.9,37" id="Shape" fill="#767676"></path>
        <path d="M196,11.4 C196,13.3 196.8,15.1 198,16.4 L198.5,16.9 L203.1,21.4 C203.4,21.7 204,21.7 204.3,21.4 L208.9,16.9 L209.4,16.4 C210.6,15.1 211.4,13.3 211.4,11.4 L211.4,11.3 L211.4,11.3 C211.4,9.3 210.6,7.5 209.4,6.2 L208.9,5.7 L204.3,1.2 C204,0.9 203.4,0.9 203.1,1.2 L198.5,5.7 L198,6.2 C196.8,7.5 196,9.3 196,11.3 L196,11.3 L196,11.4" id="Shape" fill="#767676"></path>
        <path d="M1113,11.4 C1113,13.3 1113.8,15.1 1115,16.4 L1115.5,16.9 L1120.1,21.4 C1120.4,21.7 1121,21.7 1121.3,21.4 L1125.9,16.9 L1126.4,16.4 C1127.6,15.1 1128.4,13.3 1128.4,11.4 L1128.4,11.3 L1128.4,11.3 C1128.4,9.3 1127.6,7.5 1126.4,6.2 L1125.9,5.7 L1121.3,1.2 C1121,0.9 1120.4,0.9 1120.1,1.2 L1115.5,5.7 L1115,6.2 C1113.8,7.5 1113,9.3 1113,11.3 L1113,11.3 L1113,11.4" id="Shape" fill="#767676"></path>
        <path d="M317,20.4 L317,27.2 C317,27.6 317.4,28 317.9,28 L324.8,28 L325.5,28 C327.5,27.9 329.4,27.2 330.9,25.7 L331,25.7 L331,25.6 C332.5,24.2 333.3,22.3 333.4,20.3 L333.4,19.6 L333.4,12.9 C333.4,12.4 333,12 332.5,12 L325.6,12 L324.8,12 C322.9,12.1 320.9,12.8 319.4,14.3 L319.4,14.3 L319.4,14.4 C317.9,15.9 317.1,17.8 317,19.7 L317,20.4 Z" id="Shape" fill="#767676"></path>
        <path d="M1343,9.4 L1343,16.2 C1343,16.6 1343.4,17 1343.9,17 L1350.8,17 L1351.5,17 C1353.5,16.9 1355.4,16.2 1356.9,14.7 L1357,14.7 L1357,14.6 C1358.5,13.2 1359.3,11.3 1359.4,9.3 L1359.4,8.6 L1359.4,1.9 C1359.4,1.4 1359,1 1358.5,1 L1351.6,1 L1350.8,1 C1348.9,1.1 1346.9,1.8 1345.4,3.3 L1345.4,3.3 L1345.4,3.4 C1343.9,4.9 1343.1,6.8 1343,8.7 L1343,9.4 Z" id="Shape" fill="#767676"></path>
        <path d="M354.1,31 L351.2,31.5 C351,31.5 350.9,31.7 351.1,31.9 L353.4,34.1 C353.5,34.2 353.7,34.2 353.7,34 L354.4,31.3 C354.4,31.1 354.3,31 354.1,31" id="Shape" fill="#767676"></path>
        <path d="M1237.1,31 L1234.2,31.5 C1234,31.5 1233.9,31.7 1234.1,31.9 L1236.4,34.1 C1236.5,34.2 1236.7,34.2 1236.7,34 L1237.4,31.3 C1237.4,31.1 1237.3,31 1237.1,31" id="Shape" fill="#767676"></path>
        <path d="M273.6,57.6 L280.5,50.8 L277.6,48 L274.7,50.9 C274.7,50.9 274.3,51.3 273.7,51.8 C273.3,52.2 273,52.9 273,53.5 L273,57.3 C273,57.6 273.4,57.8 273.6,57.6" id="Shape" fill="#767676"></path>
        <path d="M1190.6,57.6 L1197.5,50.8 L1194.6,48 L1191.7,50.9 C1191.7,50.9 1191.3,51.3 1190.7,51.8 C1190.3,52.2 1190,52.9 1190,53.5 L1190,57.3 C1190,57.6 1190.4,57.8 1190.6,57.6" id="Shape" fill="#767676"></path>
        <path d="M93,42.7 L102,51.6 L102,51.6 L108.8,58.2 C109.1,58.5 109.5,58.3 109.5,58 L109.5,54.2 C109.5,53.6 109.2,53 108.7,52.5 C108.2,52 107.8,51.6 107.8,51.6 L104.9,48.8 L104.9,48.8 L98.8,42.8 L110.4,31.6 L122.1,43 L120.5,44.5 L110.4,34.7 L102.1,42.9 L109.8,50.5 C110.1,50.8 110.7,50.8 111,50.5 L114.3,47.2 L111.5,44.4 C110.9,43.8 110,43.8 109.4,44.4 L107.8,42.9 L110.4,40.3 L120.4,50.1 L127.9,43.1 L110.4,26 L93,42.7 Z" id="Shape" fill="#767676"></path>
        <path d="M1010,42.7 L1019,51.6 L1019,51.6 L1025.8,58.2 C1026.1,58.5 1026.5,58.3 1026.5,58 L1026.5,54.2 C1026.5,53.6 1026.2,53 1025.7,52.5 C1025.2,52 1024.8,51.6 1024.8,51.6 L1021.9,48.8 L1021.9,48.8 L1015.8,42.8 L1027.4,31.6 L1039.1,43 L1037.5,44.5 L1027.4,34.7 L1019.1,42.9 L1026.8,50.5 C1027.1,50.8 1027.7,50.8 1028,50.5 L1031.3,47.2 L1028.5,44.4 C1027.9,43.8 1027,43.8 1026.4,44.4 L1024.8,42.9 L1027.4,40.3 L1037.4,50.1 L1044.9,43.1 L1027.4,26 L1010,42.7 Z" id="Shape" fill="#767676"></path>
        <path d="M438.2,61.1 L438.1,61 L431,67.9 C431,67.9 430.4,68.5 429.7,69.2 C429.3,69.6 429,70.2 429,70.9 L429,88.2 L433.6,92.7 C435.1,94.2 437.4,94.2 438.9,92.7 L431.6,85.6 L437.3,80.1 L438.2,79.3 C440.4,76.9 441.8,73.7 441.8,70.3 L441.8,70.2 L441.8,70.1 C441.8,66.6 440.4,63.5 438.2,61.1" id="Shape" fill="#767676"></path>
        <path d="M1322.2,61.1 L1322.1,61 L1315,67.9 C1315,67.9 1314.4,68.5 1313.7,69.2 C1313.3,69.6 1313,70.2 1313,70.9 L1313,88.2 L1317.6,92.7 C1319.1,94.2 1321.4,94.2 1322.9,92.7 L1315.6,85.6 L1321.3,80.1 L1322.2,79.3 C1324.4,76.9 1325.8,73.7 1325.8,70.3 L1325.8,70.2 L1325.8,70.1 C1325.8,66.6 1324.4,63.5 1322.2,61.1" id="Shape" fill="#767676"></path>
        <path d="M897.2,61.1 L897.1,61 L890,67.9 C890,67.9 889.4,68.5 888.7,69.2 C888.3,69.6 888,70.2 888,70.9 L888,88.2 L892.6,92.7 C894.1,94.2 896.4,94.2 897.9,92.7 L890.6,85.6 L896.3,80.1 L897.2,79.3 C899.4,76.9 900.8,73.7 900.8,70.3 L900.8,70.2 L900.8,70.1 C900.8,66.6 899.4,63.5 897.2,61.1" id="Shape" fill="#767676"></path>
        <path d="M385.9,27.3 L380.8,26.2 L380.3,26.1 C378.8,25.8 377.3,26.1 375.9,26.9 L375.9,26.9 L375.9,27 C374.5,27.8 373.7,29.1 373.3,30.4 L373.1,31 L372,35.9 C371.9,36.3 372.2,36.6 372.5,36.7 L377.5,37.8 L378.1,37.9 C379.5,38.1 381.1,37.9 382.4,37.1 L382.5,37.1 L382.5,37 C383.8,36.2 384.7,34.9 385.1,33.5 L385.2,33 L386.4,28.1 C386.4,27.7 386.2,27.4 385.9,27.3" id="Shape" fill="#767676"></path>
        <path d="M1268.9,27.3 L1263.8,26.2 L1263.3,26.1 C1261.8,25.8 1260.3,26.1 1258.9,26.9 L1258.9,26.9 L1258.9,27 C1257.5,27.8 1256.7,29.1 1256.3,30.4 L1256.1,31 L1255,35.9 C1254.9,36.3 1255.2,36.6 1255.5,36.7 L1260.5,37.8 L1261.1,37.9 C1262.5,38.1 1264.1,37.9 1265.4,37.1 L1265.5,37.1 L1265.5,37 C1266.8,36.2 1267.7,34.9 1268.1,33.5 L1268.2,33 L1269.4,28.1 C1269.4,27.7 1269.2,27.4 1268.9,27.3" id="Shape" fill="#767676"></path>
        <path d="M843.9,27.3 L838.8,26.2 L838.3,26.1 C836.8,25.8 835.3,26.1 833.9,26.9 L833.9,26.9 L833.9,27 C832.5,27.8 831.7,29.1 831.3,30.4 L831.1,31 L830,35.9 C829.9,36.3 830.2,36.6 830.5,36.7 L835.5,37.8 L836.1,37.9 C837.5,38.1 839.1,37.9 840.4,37.1 L840.5,37.1 L840.5,37 C841.8,36.2 842.7,34.9 843.1,33.5 L843.2,33 L844.4,28.1 C844.4,27.7 844.2,27.4 843.9,27.3" id="Shape" fill="#767676"></path>
        <path d="M409.8,40 L409.6,39.8 C409,39.3 408.3,39 407.4,39 L407.4,39 L407.4,39 C406.5,39 405.8,39.3 405.2,39.8 L405,40 L403.1,41.9 C403,42 403,42.3 403.1,42.4 L405,44.3 L405.2,44.5 C405.8,45 406.5,45.3 407.4,45.3 L407.4,45.3 L407.4,45.3 C408.3,45.3 409,45 409.6,44.5 L409.8,44.3 L411.7,42.4 C411.8,42.3 411.8,42 411.7,41.9 L409.8,40 Z" id="Shape" fill="#767676"></path>
        <path d="M1293.8,40 L1293.6,39.8 C1293,39.3 1292.3,39 1291.4,39 L1291.4,39 L1291.4,39 C1290.5,39 1289.8,39.3 1289.2,39.8 L1289,40 L1287.1,41.9 C1287,42 1287,42.3 1287.1,42.4 L1289,44.3 L1289.2,44.5 C1289.8,45 1290.5,45.3 1291.4,45.3 L1291.4,45.3 L1291.4,45.3 C1292.3,45.3 1293,45 1293.6,44.5 L1293.8,44.3 L1295.7,42.4 C1295.8,42.3 1295.8,42 1295.7,41.9 L1293.8,40 Z" id="Shape" fill="#767676"></path>
        <path d="M868.8,40 L868.6,39.8 C868,39.3 867.3,39 866.4,39 L866.4,39 L866.4,39 C865.5,39 864.8,39.3 864.2,39.8 L864,40 L862.1,41.9 C862,42 862,42.3 862.1,42.4 L864,44.3 L864.2,44.5 C864.8,45 865.5,45.3 866.4,45.3 L866.4,45.3 L866.4,45.3 C867.3,45.3 868,45 868.6,44.5 L868.8,44.3 L870.7,42.4 C870.8,42.3 870.8,42 870.7,41.9 L868.8,40 Z" id="Shape" fill="#767676"></path>
        <path d="M253.7,88.4 C253.6,89.2 253,89.9 252.2,89.9 L252.1,89.9 L252.1,89.9 C251.3,89.9 250.6,89.2 250.6,88.4 L250.6,88.4 C250.6,88 250.7,87.7 251,87.4 L251.1,87.3 L252,86.4 C252.1,86.3 252.2,86.3 252.2,86.4 L253.2,87.3 L253.3,87.4 C253.5,87.7 253.7,88 253.7,88.4 L253.7,88.4 L253.7,88.4 Z M254.9,85.5 L252.4,83.1 C252.3,83 252,83 251.8,83.1 L249.4,85.5 L249.1,85.8 C248.4,86.5 248,87.4 248,88.5 L248,88.6 C248.1,90.7 249.8,92.4 252,92.5 L252.1,92.5 L252.2,92.5 C254.4,92.4 256.2,90.7 256.2,88.6 L256.2,88.5 C256.2,87.4 255.8,86.5 255.1,85.8 L254.9,85.5 Z" id="Shape" fill="#767676"></path>
        <path d="M1170.7,88.4 C1170.6,89.2 1170,89.9 1169.2,89.9 L1169.1,89.9 L1169.1,89.9 C1168.3,89.9 1167.6,89.2 1167.6,88.4 L1167.6,88.4 C1167.6,88 1167.7,87.7 1168,87.4 L1168.1,87.3 L1169,86.4 C1169.1,86.3 1169.2,86.3 1169.2,86.4 L1170.2,87.3 L1170.3,87.4 C1170.5,87.7 1170.7,88 1170.7,88.4 L1170.7,88.4 L1170.7,88.4 Z M1171.9,85.5 L1169.4,83.1 C1169.3,83 1169,83 1168.8,83.1 L1166.4,85.5 L1166.1,85.8 C1165.4,86.5 1165,87.4 1165,88.5 L1165,88.6 C1165.1,90.7 1166.8,92.4 1169,92.5 L1169.1,92.5 L1169.2,92.5 C1171.4,92.4 1173.2,90.7 1173.2,88.6 L1173.2,88.5 C1173.2,87.4 1172.8,86.5 1172.1,85.8 L1171.9,85.5 Z" id="Shape" fill="#767676"></path>
        <path d="M711.7,88.4 C711.6,89.2 711,89.9 710.2,89.9 L710.1,89.9 L710.1,89.9 C709.3,89.9 708.6,89.2 708.6,88.4 L708.6,88.4 C708.6,88 708.7,87.7 709,87.4 L709.1,87.3 L710,86.4 C710.1,86.3 710.2,86.3 710.2,86.4 L711.2,87.3 L711.3,87.4 C711.5,87.7 711.7,88 711.7,88.4 L711.7,88.4 L711.7,88.4 Z M712.9,85.5 L710.4,83.1 C710.3,83 710,83 709.8,83.1 L707.4,85.5 L707.1,85.8 C706.4,86.5 706,87.4 706,88.5 L706,88.6 C706.1,90.7 707.8,92.4 710,92.5 L710.1,92.5 L710.2,92.5 C712.4,92.4 714.2,90.7 714.2,88.6 L714.2,88.5 C714.2,87.4 713.8,86.5 713.1,85.8 L712.9,85.5 Z" id="Shape" fill="#767676"></path>
        <path d="M178.7,75.9 L169.7,67 C169.2,66.6 169.2,65.9 169.7,65.5 C170.2,65.1 170.9,65.1 171.3,65.5 L178.7,72.8 L178.7,68.8 L169.4,59.7 C169,59.3 169,58.7 169.3,58.3 C169.7,57.7 170.5,57.6 171,58.1 L178.7,65.7 L178.7,62.8 C178.7,62.2 178.5,61.6 178,61.1 C177.3,60.5 176.8,59.9 176.8,59.9 L169.7,53 L169.6,53.1 C167.4,55.5 166,58.6 166,62.1 L166,62.2 L166,62.3 C166,65.8 167.4,68.9 169.6,71.3 L170.5,72.2 L176.1,77.6 L168.8,84.7 C170.3,86.2 172.6,86.2 174.1,84.7 L178.7,80.2 L178.7,75.9" id="Shape" fill="#767676"></path>
        <path d="M1095.7,75.9 L1086.7,67 C1086.2,66.6 1086.2,65.9 1086.7,65.5 C1087.2,65.1 1087.9,65.1 1088.3,65.5 L1095.7,72.8 L1095.7,68.8 L1086.4,59.7 C1086,59.3 1086,58.7 1086.3,58.3 C1086.7,57.7 1087.5,57.6 1088,58.1 L1095.7,65.7 L1095.7,62.8 C1095.7,62.2 1095.5,61.6 1095,61.1 C1094.3,60.5 1093.8,59.9 1093.8,59.9 L1086.7,53 L1086.6,53.1 C1084.4,55.5 1083,58.6 1083,62.1 L1083,62.2 L1083,62.3 C1083,65.8 1084.4,68.9 1086.6,71.3 L1087.5,72.2 L1093.1,77.6 L1085.8,84.7 C1087.3,86.2 1089.6,86.2 1091.1,84.7 L1095.7,80.2 L1095.7,75.9" id="Shape" fill="#767676"></path>
        <path d="M39.8,40 L39.6,39.8 C39,39.3 38.3,39 37.4,39 L37.4,39 L37.4,39 C36.5,39 35.8,39.3 35.2,39.8 L35,40 L33.1,41.9 C33,42 33,42.3 33.1,42.4 L35,44.3 L35.2,44.5 C35.8,45 36.5,45.3 37.4,45.3 L37.4,45.3 L37.4,45.3 C38.3,45.3 39,45 39.6,44.5 L39.8,44.3 L41.7,42.4 C41.8,42.3 41.8,42 41.7,41.9 L39.8,40 Z" id="Shape" fill="#767676"></path>
        <path d="M956.8,40 L956.6,39.8 C956,39.3 955.3,39 954.4,39 L954.4,39 L954.4,39 C953.5,39 952.8,39.3 952.2,39.8 L952,40 L950.1,41.9 C950,42 950,42.3 950.1,42.4 L952,44.3 L952.2,44.5 C952.8,45 953.5,45.3 954.4,45.3 L954.4,45.3 L954.4,45.3 C955.3,45.3 956,45 956.6,44.5 L956.8,44.3 L958.7,42.4 C958.8,42.3 958.8,42 958.7,41.9 L956.8,40 Z" id="Shape" fill="#767676"></path>
        <path d="M497.8,40 L497.6,39.8 C497,39.3 496.3,39 495.4,39 L495.4,39 L495.4,39 C494.5,39 493.8,39.3 493.2,39.8 L493,40 L491.1,41.9 C491,42 491,42.3 491.1,42.4 L493,44.3 L493.2,44.5 C493.8,45 494.5,45.3 495.4,45.3 L495.4,45.3 L495.4,45.3 C496.3,45.3 497,45 497.6,44.5 L497.8,44.3 L499.7,42.4 C499.8,42.3 499.8,42 499.7,41.9 L497.8,40 Z" id="Shape" fill="#767676"></path>
        <path d="M1132,118.2 L1132,119.5 C1132,119.7 1131.8,119.8 1131.6,119.6 L1131,119 C1130.9,118.9 1130.9,118.8 1131,118.7 L1131.6,118.1 C1131.7,117.9 1131.9,118 1132,118.2" id="Shape" fill="#767676"></path>
        <path d="M215,118.2 L215,119.5 C215,119.7 214.8,119.8 214.6,119.6 L214,119 C213.9,118.9 213.9,118.8 214,118.7 L214.6,118.1 C214.7,117.9 214.9,118 215,118.2" id="Shape" fill="#767676"></path>
        <path d="M674,118.2 L674,119.5 C674,119.7 673.8,119.8 673.6,119.6 L673,119 C672.9,118.9 672.9,118.8 673,118.7 L673.6,118.1 C673.7,117.9 673.9,118 674,118.2" id="Shape" fill="#767676"></path>
        <path d="M1299.6,118.7 L1299.6,118.7 C1298.1,120.2 1296.1,120.9 1294.2,121 L1293.4,121 L1286.5,121 C1286,121 1285.6,120.6 1285.6,120.2 L1285.6,113.4 L1285.6,112.7 C1285.7,110.8 1286.5,108.9 1288,107.4 C1288,107.4 1288,107.4 1288,107.3 L1288.1,107.3 C1289.6,105.8 1291.5,105.1 1293.5,105 L1294.2,105 L1301.1,105 C1301.6,105 1302,105.4 1302,105.9 L1302,112.6 L1302,113.3 C1301.9,115.3 1301.1,117.2 1299.6,118.6 L1299.6,118.7" id="Shape" fill="#767676"></path>
        <path d="M382.6,118.7 L382.6,118.7 C381.1,120.2 379.1,120.9 377.2,121 L376.4,121 L369.5,121 C369,121 368.6,120.6 368.6,120.2 L368.6,113.4 L368.6,112.7 C368.7,110.8 369.5,108.9 371,107.4 C371,107.4 371,107.4 371,107.3 L371.1,107.3 C372.6,105.8 374.5,105.1 376.5,105 L377.2,105 L384.1,105 C384.6,105 385,105.4 385,105.9 L385,112.6 L385,113.3 C384.9,115.3 384.1,117.2 382.6,118.6 L382.6,118.7" id="Shape" fill="#767676"></path>
        <path d="M841.6,118.7 L841.6,118.7 C840.1,120.2 838.1,120.9 836.2,121 L835.4,121 L828.5,121 C828,121 827.6,120.6 827.6,120.2 L827.6,113.4 L827.6,112.7 C827.7,110.8 828.5,108.9 830,107.4 C830,107.4 830,107.4 830,107.3 L830.1,107.3 C831.6,105.8 833.5,105.1 835.5,105 L836.2,105 L843.1,105 C843.6,105 844,105.4 844,105.9 L844,112.6 L844,113.3 C843.9,115.3 843.1,117.2 841.6,118.6 L841.6,118.7" id="Shape" fill="#767676"></path>
        <path d="M1215.7168,123.966278 C1215.9168,123.966278 1216.0168,124.166278 1216.0168,124.266278 L1215.3168,127.166278 C1215.2168,127.366278 1215.0168,127.366278 1214.9168,127.266278 L1212.5168,124.866278 C1212.3168,124.766278 1212.4168,124.566278 1212.6168,124.466278 L1215.7168,123.966278 Z" id="Shape" fill="#767676" transform="translate(1214.212294, 125.649121) scale(-1, 1) translate(-1214.212294, -125.649121) "></path>
        <path d="M298.716803,123.966278 C298.916803,123.966278 299.016803,124.166278 299.016803,124.266278 L298.316803,127.166278 C298.216803,127.366278 298.016803,127.366278 297.916803,127.266278 L295.516803,124.866278 C295.316803,124.766278 295.416803,124.566278 295.616803,124.466278 L298.716803,123.966278 Z" id="Shape" fill="#767676" transform="translate(297.212294, 125.649121) scale(-1, 1) translate(-297.212294, -125.649121) "></path>
        <path d="M1062.5,118.1 L1062.9,118.6 C1063,118.7 1063,118.8 1062.9,118.9 L1062.4,119.4 C1062.3,119.6 1062,119.5 1062,119.3 L1062.1,118.2 C1062.1,118 1062.3,117.9 1062.5,118.1" id="Shape" fill="#767676"></path>
        <path d="M145.5,118.1 L145.9,118.6 C146,118.7 146,118.8 145.9,118.9 L145.4,119.4 C145.3,119.6 145,119.5 145,119.3 L145.1,118.2 C145.1,118 145.3,117.9 145.5,118.1" id="Shape" fill="#767676"></path>
        <path d="M1356.1,130 C1356.1,130 1356.1,130 1356.1,130.1 L1356.1,130.1 C1354.7,130.9 1353.2,131.1 1351.7,130.9 L1351.2,130.8 L1346.1,129.7 C1345.8,129.6 1345.6,129.3 1345.6,128.9 L1346.8,124 L1346.9,123.4 C1347.3,122.1 1348.2,120.8 1349.5,120 L1349.5,119.9 L1349.6,119.9 C1350.9,119.1 1352.5,118.8 1353.9,119.1 L1354.5,119.2 L1359.5,120.3 C1359.8,120.4 1360.1,120.7 1360,121.1 L1358.9,126 L1358.7,126.5 C1358.3,127.9 1357.5,129.2 1356.1,130" id="Shape" fill="#767676"></path>
        <path d="M439.1,130 C439.1,130 439.1,130 439.1,130.1 L439.1,130.1 C437.7,130.9 436.2,131.1 434.7,130.9 L434.2,130.8 L429.1,129.7 C428.8,129.6 428.6,129.3 428.6,128.9 L429.8,124 L429.9,123.4 C430.3,122.1 431.2,120.8 432.5,120 L432.5,119.9 L432.6,119.9 C433.9,119.1 435.5,118.8 436.9,119.1 L437.5,119.2 L442.5,120.3 C442.8,120.4 443.1,120.7 443,121.1 L441.9,126 L441.7,126.5 C441.3,127.9 440.5,129.2 439.1,130" id="Shape" fill="#767676"></path>
        <path d="M897.1,130 C897.1,130 897.1,130 897.1,130.1 L897.1,130.1 C895.7,130.9 894.2,131.1 892.7,130.9 L892.2,130.8 L887.1,129.7 C886.8,129.6 886.6,129.3 886.6,128.9 L887.8,124 L887.9,123.4 C888.3,122.1 889.2,120.8 890.5,120 L890.5,119.9 L890.6,119.9 C891.9,119.1 893.5,118.8 894.9,119.1 L895.5,119.2 L900.5,120.3 C900.8,120.4 901.1,120.7 901,121.1 L899.9,126 L899.7,126.5 C899.3,127.9 898.5,129.2 897.1,130" id="Shape" fill="#767676"></path>
        <path d="M1165,104.4 C1165,106.3 1164.2,108.1 1163,109.4 L1162.5,109.9 L1157.9,114.4 C1157.6,114.7 1157,114.7 1156.7,114.4 L1152.1,109.9 L1151.6,109.4 C1150.4,108.1 1149.6,106.3 1149.6,104.4 L1149.6,104.3 L1149.6,104.3 C1149.6,102.3 1150.4,100.5 1151.6,99.2 L1152.1,98.7 L1156.7,94.2 C1157,93.9 1157.6,93.9 1157.9,94.2 L1162.5,98.7 L1163,99.2 C1164.2,100.5 1165,102.3 1165,104.3 L1165,104.3 L1165,104.4" id="Shape" fill="#767676"></path>
        <path d="M248,104.4 C248,106.3 247.2,108.1 246,109.4 L245.5,109.9 L240.9,114.4 C240.6,114.7 240,114.7 239.7,114.4 L235.1,109.9 L234.6,109.4 C233.4,108.1 232.6,106.3 232.6,104.4 L232.6,104.3 L232.6,104.3 C232.6,102.3 233.4,100.5 234.6,99.2 L235.1,98.7 L239.7,94.2 C240,93.9 240.6,93.9 240.9,94.2 L245.5,98.7 L246,99.2 C247.2,100.5 248,102.3 248,104.3 L248,104.3 L248,104.4" id="Shape" fill="#767676"></path>
        <path d="M1044.02302,113.404723 L1044.02302,120.104723 C1044.02302,120.604723 1043.62302,121.004723 1043.12302,121.004723 L1036.22302,121.004723 L1035.52302,121.004723 C1033.52302,120.904723 1031.62302,120.204723 1030.12302,118.704723 L1030.02302,118.704723 L1030.02302,118.604723 C1028.52302,117.204723 1027.72302,115.304723 1027.62302,113.304723 L1027.62302,112.604723 L1027.62302,105.904723 C1027.62302,105.404723 1028.02302,105.004723 1028.52302,105.004723 L1035.42302,105.004723 L1036.12302,105.004723 C1038.12302,105.104723 1040.02302,105.804723 1041.52302,107.304723 L1041.62302,107.304723 L1041.62302,107.404723 C1043.12302,108.804723 1043.92302,110.704723 1044.02302,112.704723 L1044.02302,113.404723 Z" id="Shape" fill="#767676" transform="translate(1035.823016, 113.004723) scale(-1, 1) translate(-1035.823016, -113.004723) "></path>
        <path d="M18.023016,102.404723 L18.023016,109.104723 C18.023016,109.604723 17.623016,110.004723 17.123016,110.004723 L10.223016,110.004723 L9.523016,110.004723 C7.523016,109.904723 5.623016,109.204723 4.123016,107.704723 L4.023016,107.704723 L4.023016,107.604723 C2.523016,106.204723 1.723016,104.304723 1.623016,102.304723 L1.623016,101.604723 L1.623016,94.904723 C1.623016,94.404723 2.023016,94.004723 2.523016,94.004723 L9.423016,94.004723 L10.123016,94.004723 C12.123016,94.104723 14.023016,94.804723 15.523016,96.304723 L15.623016,96.304723 L15.623016,96.404723 C17.123016,97.804723 17.923016,99.704723 18.023016,101.704723 L18.023016,102.404723 Z" id="Shape" fill="#767676" transform="translate(9.823016, 102.004723) scale(-1, 1) translate(-9.823016, -102.004723) "></path>
        <path d="M1006.9,124 L1009.8,124.5 C1010,124.5 1010.1,124.7 1009.9,124.9 L1007.6,127.1 C1007.5,127.2 1007.3,127.2 1007.3,127 L1006.6,124.3 C1006.6,124.1 1006.7,124 1006.9,124" id="Shape" fill="#767676"></path>
        <path d="M123.9,124 L126.8,124.5 C127,124.5 127.1,124.7 126.9,124.9 L124.6,127.1 C124.5,127.2 124.3,127.2 124.3,127 L123.6,124.3 C123.6,124.1 123.7,124 123.9,124" id="Shape" fill="#767676"></path>
        <path d="M1087.4,150.6 L1080.5,143.8 L1083.4,141 L1086.3,143.9 C1086.3,143.9 1086.7,144.3 1087.3,144.8 C1087.7,145.2 1088,145.9 1088,146.5 L1088,150.3 C1088,150.6 1087.6,150.8 1087.4,150.6" id="Shape" fill="#767676"></path>
        <path d="M170.4,150.6 L163.5,143.8 L166.4,141 L169.3,143.9 C169.3,143.9 169.7,144.3 170.3,144.8 C170.7,145.2 171,145.9 171,146.5 L171,150.3 C171,150.6 170.6,150.8 170.4,150.6" id="Shape" fill="#767676"></path>
        <path d="M1267.95476,135.774183 L1258.95476,144.574183 L1258.95476,144.574183 L1252.15476,151.274183 C1251.95476,151.474183 1251.55476,151.274183 1251.55476,150.974183 L1251.55476,147.274183 C1251.55476,146.574183 1251.85476,145.974183 1252.25476,145.474183 C1252.75476,144.974183 1253.15476,144.574183 1253.15476,144.574183 L1256.05476,141.774183 L1256.05476,141.774183 L1262.25476,135.774183 L1250.65476,124.574183 L1238.95476,136.074183 L1240.55476,137.474183 L1250.55476,127.674183 L1258.85476,135.874183 L1251.15476,143.474183 C1250.85476,143.774183 1250.35476,143.774183 1250.05476,143.474183 L1246.65476,140.174183 L1249.55476,137.374183 C1250.15476,136.874183 1251.05476,136.874183 1251.65476,137.374183 L1253.15476,135.874183 L1250.55476,133.374183 L1240.65476,143.074183 L1233.15476,136.074183 L1250.55476,118.974183 L1267.95476,135.774183 Z" id="Shape" fill="#767676" transform="translate(1250.554757, 135.164436) scale(-1, 1) translate(-1250.554757, -135.164436) "></path>
        <path d="M350.954757,135.774183 L341.954757,144.574183 L341.954757,144.574183 L335.154757,151.274183 C334.954757,151.474183 334.554757,151.274183 334.554757,150.974183 L334.554757,147.274183 C334.554757,146.574183 334.854757,145.974183 335.254757,145.474183 C335.754757,144.974183 336.154757,144.574183 336.154757,144.574183 L339.054757,141.774183 L339.054757,141.774183 L345.254757,135.774183 L333.654757,124.574183 L321.954757,136.074183 L323.554757,137.474183 L333.554757,127.674183 L341.854757,135.874183 L334.154757,143.474183 C333.854757,143.774183 333.354757,143.774183 333.054757,143.474183 L329.654757,140.174183 L332.554757,137.374183 C333.154757,136.874183 334.054757,136.874183 334.654757,137.374183 L336.154757,135.874183 L333.554757,133.374183 L323.654757,143.074183 L316.154757,136.074183 L333.554757,118.974183 L350.954757,135.774183 Z" id="Shape" fill="#767676" transform="translate(333.554757, 135.164436) scale(-1, 1) translate(-333.554757, -135.164436) "></path>
        <path d="M922.8,154.1 L922.9,154 L930,160.9 C930,160.9 930.6,161.5 931.3,162.2 C931.7,162.6 932,163.2 932,163.9 L932,181.2 L927.4,185.7 C925.9,187.2 923.6,187.2 922.1,185.7 L929.4,178.6 L923.7,173.1 L922.8,172.3 C920.6,169.9 919.2,166.7 919.2,163.3 L919.2,163.2 L919.2,163.1 C919.2,159.6 920.6,156.5 922.8,154.1" id="Shape" fill="#767676"></path>
        <path d="M38.8,154.1 L38.9,154 L46,160.9 C46,160.9 46.6,161.5 47.3,162.2 C47.7,162.6 48,163.2 48,163.9 L48,181.2 L43.4,185.7 C41.9,187.2 39.6,187.2 38.1,185.7 L45.4,178.6 L39.7,173.1 L38.8,172.3 C36.6,169.9 35.2,166.7 35.2,163.3 L35.2,163.2 L35.2,163.1 C35.2,159.6 36.6,156.5 38.8,154.1" id="Shape" fill="#767676"></path>
        <path d="M463.8,154.1 L463.9,154 L471,160.9 C471,160.9 471.6,161.5 472.3,162.2 C472.7,162.6 473,163.2 473,163.9 L473,181.2 L468.4,185.7 C466.9,187.2 464.6,187.2 463.1,185.7 L470.4,178.6 L464.7,173.1 L463.8,172.3 C461.6,169.9 460.2,166.7 460.2,163.3 L460.2,163.2 L460.2,163.1 C460.2,159.6 461.6,156.5 463.8,154.1" id="Shape" fill="#767676"></path>
        <path d="M975.1,120.3 L980.2,119.2 L980.7,119.1 C982.2,118.8 983.7,119.1 985.1,119.9 L985.1,119.9 L985.1,120 C986.5,120.8 987.3,122.1 987.7,123.4 L987.9,124 L989,128.9 C989.1,129.3 988.8,129.6 988.5,129.7 L983.5,130.8 L982.9,130.9 C981.5,131.1 979.9,130.9 978.6,130.1 L978.5,130.1 L978.5,130 C977.2,129.2 976.3,127.9 975.9,126.5 L975.8,126 L974.6,121.1 C974.6,120.7 974.8,120.4 975.1,120.3" id="Shape" fill="#767676"></path>
        <path d="M92.1,120.3 L97.2,119.2 L97.7,119.1 C99.2,118.8 100.7,119.1 102.1,119.9 L102.1,119.9 L102.1,120 C103.5,120.8 104.3,122.1 104.7,123.4 L104.9,124 L106,128.9 C106.1,129.3 105.8,129.6 105.5,129.7 L100.5,130.8 L99.9,130.9 C98.5,131.1 96.9,130.9 95.6,130.1 L95.5,130.1 L95.5,130 C94.2,129.2 93.3,127.9 92.9,126.5 L92.8,126 L91.6,121.1 C91.6,120.7 91.8,120.4 92.1,120.3" id="Shape" fill="#767676"></path>
        <path d="M517.1,120.3 L522.2,119.2 L522.7,119.1 C524.2,118.8 525.7,119.1 527.1,119.9 L527.1,119.9 L527.1,120 C528.5,120.8 529.3,122.1 529.7,123.4 L529.9,124 L531,128.9 C531.1,129.3 530.8,129.6 530.5,129.7 L525.5,130.8 L524.9,130.9 C523.5,131.1 521.9,130.9 520.6,130.1 L520.5,130.1 L520.5,130 C519.2,129.2 518.3,127.9 517.9,126.5 L517.8,126 L516.6,121.1 C516.6,120.7 516.8,120.4 517.1,120.3" id="Shape" fill="#767676"></path>
        <path d="M951.195523,133.046432 L951.395523,132.846432 C951.995523,132.346432 952.695523,132.046432 953.595523,132.046432 L953.595523,132.046432 L953.595523,132.046432 C954.495523,132.046432 955.195523,132.346432 955.795523,132.846432 L955.995523,133.046432 L957.895523,134.946432 C957.995523,135.046432 957.995523,135.246432 957.895523,135.346432 L955.995523,137.246432 L955.795523,137.446432 C955.195523,137.946432 954.495523,138.246432 953.595523,138.246432 L953.595523,138.246432 L953.595523,138.246432 C952.695523,138.246432 951.995523,137.946432 951.395523,137.446432 L951.195523,137.246432 L949.295523,135.346432 C949.195523,135.246432 949.195523,135.046432 949.295523,134.946432 L951.195523,133.046432 Z" id="Shape" fill="#767676" transform="translate(953.595523, 135.146432) scale(-1, 1) translate(-953.595523, -135.146432) "></path>
        <path d="M67.195523,133.046432 L67.395523,132.846432 C67.995523,132.346432 68.695523,132.046432 69.595523,132.046432 L69.595523,132.046432 L69.595523,132.046432 C70.495523,132.046432 71.195523,132.346432 71.795523,132.846432 L71.995523,133.046432 L73.895523,134.946432 C73.995523,135.046432 73.995523,135.246432 73.895523,135.346432 L71.995523,137.246432 L71.795523,137.446432 C71.195523,137.946432 70.495523,138.246432 69.595523,138.246432 L69.595523,138.246432 L69.595523,138.246432 C68.695523,138.246432 67.995523,137.946432 67.395523,137.446432 L67.195523,137.246432 L65.295523,135.346432 C65.195523,135.246432 65.195523,135.046432 65.295523,134.946432 L67.195523,133.046432 Z" id="Shape" fill="#767676" transform="translate(69.595523, 135.146432) scale(-1, 1) translate(-69.595523, -135.146432) "></path>
        <path d="M492.195523,133.046432 L492.395523,132.846432 C492.995523,132.346432 493.695523,132.046432 494.595523,132.046432 L494.595523,132.046432 L494.595523,132.046432 C495.495523,132.046432 496.195523,132.346432 496.795523,132.846432 L496.995523,133.046432 L498.895523,134.946432 C498.995523,135.046432 498.995523,135.246432 498.895523,135.346432 L496.995523,137.246432 L496.795523,137.446432 C496.195523,137.946432 495.495523,138.246432 494.595523,138.246432 L494.595523,138.246432 L494.595523,138.246432 C493.695523,138.246432 492.995523,137.946432 492.395523,137.446432 L492.195523,137.246432 L490.295523,135.346432 C490.195523,135.246432 490.195523,135.046432 490.295523,134.946432 L492.195523,133.046432 Z" id="Shape" fill="#767676" transform="translate(494.595523, 135.146432) scale(-1, 1) translate(-494.595523, -135.146432) "></path>
        <path d="M1107.38426,181.461514 C1107.38426,182.261514 1107.98426,182.861514 1108.88426,182.861514 L1108.88426,182.961514 L1108.88426,182.861514 C1109.78426,182.861514 1110.38426,182.261514 1110.38426,181.461514 C1110.38426,181.461514 1110.38426,181.461514 1110.38426,181.361514 C1110.38426,180.961514 1110.28426,180.661514 1109.98426,180.361514 L1109.88426,180.261514 L1108.98426,179.361514 L1108.78426,179.361514 L1107.88426,180.261514 L1107.78426,180.361514 C1107.48426,180.661514 1107.38426,180.961514 1107.38426,181.361514 L1107.38426,181.461514 L1107.38426,181.461514 Z M1111.68426,178.561514 L1109.18426,176.161514 C1108.98426,175.961514 1108.78426,175.961514 1108.58426,176.161514 L1106.08426,178.561514 L1105.88426,178.761514 C1105.18426,179.461514 1104.78426,180.461514 1104.78426,181.461514 L1104.78426,181.661514 C1104.88426,183.761514 1106.58426,185.461514 1108.78426,185.461514 C1108.78426,185.561514 1108.88426,185.561514 1108.88426,185.561514 C1108.88426,185.561514 1108.98426,185.561514 1108.98426,185.461514 C1111.18426,185.461514 1112.88426,183.761514 1112.98426,181.661514 L1112.98426,181.461514 C1112.98426,180.461514 1112.58426,179.461514 1111.88426,178.761514 L1111.68426,178.561514 Z" id="Shape" fill="#767676" transform="translate(1108.884259, 180.786514) scale(-1, 1) translate(-1108.884259, -180.786514) "></path>
        <path d="M190.384259,181.461514 C190.384259,182.261514 190.984259,182.861514 191.884259,182.861514 L191.884259,182.961514 L191.884259,182.861514 C192.784259,182.861514 193.384259,182.261514 193.384259,181.461514 C193.384259,181.461514 193.384259,181.461514 193.384259,181.361514 C193.384259,180.961514 193.284259,180.661514 192.984259,180.361514 L192.884259,180.261514 L191.984259,179.361514 L191.784259,179.361514 L190.884259,180.261514 L190.784259,180.361514 C190.484259,180.661514 190.384259,180.961514 190.384259,181.361514 L190.384259,181.461514 L190.384259,181.461514 Z M194.684259,178.561514 L192.184259,176.161514 C191.984259,175.961514 191.784259,175.961514 191.584259,176.161514 L189.084259,178.561514 L188.884259,178.761514 C188.184259,179.461514 187.784259,180.461514 187.784259,181.461514 L187.784259,181.661514 C187.884259,183.761514 189.584259,185.461514 191.784259,185.461514 C191.784259,185.561514 191.884259,185.561514 191.884259,185.561514 C191.884259,185.561514 191.984259,185.561514 191.984259,185.461514 C194.184259,185.461514 195.884259,183.761514 195.984259,181.661514 L195.984259,181.461514 C195.984259,180.461514 195.584259,179.461514 194.884259,178.761514 L194.684259,178.561514 Z" id="Shape" fill="#767676" transform="translate(191.884259, 180.786514) scale(-1, 1) translate(-191.884259, -180.786514) "></path>
        <path d="M1182.3,168.9 L1191.3,160 C1191.8,159.6 1191.8,158.9 1191.3,158.5 C1190.8,158.1 1190.1,158.1 1189.7,158.5 L1182.3,165.8 L1182.3,161.8 L1191.6,152.7 C1192,152.3 1192,151.7 1191.7,151.3 C1191.3,150.7 1190.5,150.6 1190,151.1 L1182.3,158.7 L1182.3,155.8 C1182.3,155.2 1182.5,154.6 1183,154.1 C1183.7,153.5 1184.2,152.9 1184.2,152.9 L1191.3,146 L1191.4,146.1 C1193.6,148.5 1195,151.6 1195,155.1 L1195,155.2 L1195,155.3 C1195,158.8 1193.6,161.9 1191.4,164.3 L1190.5,165.2 L1184.9,170.6 L1192.2,177.7 C1190.7,179.2 1188.4,179.2 1186.9,177.7 L1182.3,173.2 L1182.3,168.9" id="Shape" fill="#767676"></path>
        <path d="M265.3,168.9 L274.3,160 C274.8,159.6 274.8,158.9 274.3,158.5 C273.8,158.1 273.1,158.1 272.7,158.5 L265.3,165.8 L265.3,161.8 L274.6,152.7 C275,152.3 275,151.7 274.7,151.3 C274.3,150.7 273.5,150.6 273,151.1 L265.3,158.7 L265.3,155.8 C265.3,155.2 265.5,154.6 266,154.1 C266.7,153.5 267.2,152.9 267.2,152.9 L274.3,146 L274.4,146.1 C276.6,148.5 278,151.6 278,155.1 L278,155.2 L278,155.3 C278,158.8 276.6,161.9 274.4,164.3 L273.5,165.2 L267.9,170.6 L275.2,177.7 C273.7,179.2 271.4,179.2 269.9,177.7 L265.3,173.2 L265.3,168.9" id="Shape" fill="#767676"></path>
        <path d="M1321.19552,133.046432 L1321.39552,132.846432 C1321.99552,132.346432 1322.69552,132.046432 1323.59552,132.046432 L1323.59552,132.046432 L1323.59552,132.046432 C1324.49552,132.046432 1325.19552,132.346432 1325.79552,132.846432 L1325.99552,133.046432 L1327.89552,134.946432 C1327.99552,135.046432 1327.99552,135.246432 1327.89552,135.346432 L1325.99552,137.246432 L1325.79552,137.446432 C1325.19552,137.946432 1324.49552,138.246432 1323.59552,138.246432 L1323.59552,138.246432 L1323.59552,138.246432 C1322.69552,138.246432 1321.99552,137.946432 1321.39552,137.446432 L1321.19552,137.246432 L1319.29552,135.346432 C1319.19552,135.246432 1319.19552,135.046432 1319.29552,134.946432 L1321.19552,133.046432 Z" id="Shape" fill="#767676" transform="translate(1323.595523, 135.146432) scale(-1, 1) translate(-1323.595523, -135.146432) "></path>
        <path d="M404.195523,133.046432 L404.395523,132.846432 C404.995523,132.346432 405.695523,132.046432 406.595523,132.046432 L406.595523,132.046432 L406.595523,132.046432 C407.495523,132.046432 408.195523,132.346432 408.795523,132.846432 L408.995523,133.046432 L410.895523,134.946432 C410.995523,135.046432 410.995523,135.246432 410.895523,135.346432 L408.995523,137.246432 L408.795523,137.446432 C408.195523,137.946432 407.495523,138.246432 406.595523,138.246432 L406.595523,138.246432 L406.595523,138.246432 C405.695523,138.246432 404.995523,137.946432 404.395523,137.446432 L404.195523,137.246432 L402.295523,135.346432 C402.195523,135.246432 402.195523,135.046432 402.295523,134.946432 L404.195523,133.046432 Z" id="Shape" fill="#767676" transform="translate(406.595523, 135.146432) scale(-1, 1) translate(-406.595523, -135.146432) "></path>
        <path d="M863.195523,133.046432 L863.395523,132.846432 C863.995523,132.346432 864.695523,132.046432 865.595523,132.046432 L865.595523,132.046432 L865.595523,132.046432 C866.495523,132.046432 867.195523,132.346432 867.795523,132.846432 L867.995523,133.046432 L869.895523,134.946432 C869.995523,135.046432 869.995523,135.246432 869.895523,135.346432 L867.995523,137.246432 L867.795523,137.446432 C867.195523,137.946432 866.495523,138.246432 865.595523,138.246432 L865.595523,138.246432 L865.595523,138.246432 C864.695523,138.246432 863.995523,137.946432 863.395523,137.446432 L863.195523,137.246432 L861.295523,135.346432 C861.195523,135.246432 861.195523,135.046432 861.295523,134.946432 L863.195523,133.046432 Z" id="Shape" fill="#767676" transform="translate(865.595523, 135.146432) scale(-1, 1) translate(-865.595523, -135.146432) "></path>
        <path d="M230.5,234.5 L230.6,233.2 C230.6,233 230.3,232.9 230.2,233.1 L229.6,233.7 C229.5,233.8 229.5,233.9 229.6,234 L230.1,234.6 C230.3,234.8 230.5,234.7 230.5,234.5" id="Shape" fill="#767676"></path>
        <path d="M1147.5,234.5 L1147.6,233.2 C1147.6,233 1147.3,232.9 1147.2,233.1 L1146.6,233.7 C1146.5,233.8 1146.5,233.9 1146.6,234 L1147.1,234.6 C1147.3,234.8 1147.5,234.7 1147.5,234.5" id="Shape" fill="#767676"></path>
        <path d="M73,221.3 L72.9,221.3 C71.4,219.8 69.5,219.1 67.5,219 L66.8,219 L59.9,219 C59.4,219 59,219.4 59,219.9 L59,226.6 L59,227.3 C59.1,229.3 59.9,231.2 61.4,232.6 C61.4,232.6 61.4,232.6 61.4,232.7 L61.4,232.7 C62.9,234.2 64.9,234.9 66.8,235 L67.6,235 L74.5,235 C75,235 75.4,234.6 75.4,234.2 L75.4,227.4 L75.4,226.7 C75.3,224.8 74.5,222.9 73,221.4 C73,221.4 73,221.4 73,221.3" id="Shape" fill="#767676"></path>
        <path d="M990,221.3 L989.9,221.3 C988.4,219.8 986.5,219.1 984.5,219 L983.8,219 L976.9,219 C976.4,219 976,219.4 976,219.9 L976,226.6 L976,227.3 C976.1,229.3 976.9,231.2 978.4,232.6 C978.4,232.6 978.4,232.6 978.4,232.7 L978.4,232.7 C979.9,234.2 981.9,234.9 983.8,235 L984.6,235 L991.5,235 C992,235 992.4,234.6 992.4,234.2 L992.4,227.4 L992.4,226.7 C992.3,224.8 991.5,222.9 990,221.4 C990,221.4 990,221.4 990,221.3" id="Shape" fill="#767676"></path>
        <path d="M531,221.3 L530.9,221.3 C529.4,219.8 527.5,219.1 525.5,219 L524.8,219 L517.9,219 C517.4,219 517,219.4 517,219.9 L517,226.6 L517,227.3 C517.1,229.3 517.9,231.2 519.4,232.6 C519.4,232.6 519.4,232.6 519.4,232.7 L519.4,232.7 C520.9,234.2 522.9,234.9 524.8,235 L525.6,235 L532.5,235 C533,235 533.4,234.6 533.4,234.2 L533.4,227.4 L533.4,226.7 C533.3,224.8 532.5,222.9 531,221.4 C531,221.4 531,221.4 531,221.3" id="Shape" fill="#767676"></path>
        <path d="M148.301231,234.331963 C148.501231,234.331963 148.601231,234.131963 148.601231,234.031963 L147.901231,231.131963 C147.801231,230.931963 147.601231,230.931963 147.501231,231.031963 L145.101231,233.431963 C144.901231,233.531963 145.001231,233.731963 145.201231,233.831963 L148.301231,234.331963 Z" id="Shape" fill="#767676" transform="translate(146.796722, 232.649121) scale(-1, -1) translate(-146.796722, -232.649121) "></path>
        <path d="M1065.30123,234.331963 C1065.50123,234.331963 1065.60123,234.131963 1065.60123,234.031963 L1064.90123,231.131963 C1064.80123,230.931963 1064.60123,230.931963 1064.50123,231.031963 L1062.10123,233.431963 C1061.90123,233.531963 1062.00123,233.731963 1062.20123,233.831963 L1065.30123,234.331963 Z" id="Shape" fill="#767676" transform="translate(1063.796722, 232.649121) scale(-1, -1) translate(-1063.796722, -232.649121) "></path>
        <path d="M299,234.5 L299.5,234 C299.6,233.9 299.6,233.7 299.5,233.6 L299,233.1 C298.8,233 298.6,233.1 298.6,233.3 L298.6,234.4 C298.6,234.6 298.9,234.6 299,234.5" id="Shape" fill="#767676"></path>
        <path d="M1216,234.5 L1216.5,234 C1216.6,233.9 1216.6,233.7 1216.5,233.6 L1216,233.1 C1215.8,233 1215.6,233.1 1215.6,233.3 L1215.6,234.4 C1215.6,234.6 1215.9,234.6 1216,234.5" id="Shape" fill="#767676"></path>
        <path d="M11.5,224 L11.5,223.9 L11.4,223.9 C10.1,223.1 8.5,222.8 7.1,223.1 L6.5,223.2 L1.5,224.3 C1.2,224.4 0.9,224.7 1,225.1 L2.1,230 L2.3,230.5 C2.7,231.9 3.5,233.2 4.9,234 C4.9,234 4.9,234 4.9,234.1 L4.9,234.1 C6.3,234.9 7.8,235.1 9.3,234.9 L9.8,234.8 L14.9,233.7 C15.2,233.6 15.4,233.3 15.4,232.9 L14.2,228 L14.1,227.4 C13.7,226.1 12.8,224.8 11.5,224" id="Shape" fill="#767676"></path>
        <path d="M928.5,224 L928.5,223.9 L928.4,223.9 C927.1,223.1 925.5,222.8 924.1,223.1 L923.5,223.2 L918.5,224.3 C918.2,224.4 917.9,224.7 918,225.1 L919.1,230 L919.3,230.5 C919.7,231.9 920.5,233.2 921.9,234 C921.9,234 921.9,234 921.9,234.1 L921.9,234.1 C923.3,234.9 924.8,235.1 926.3,234.9 L926.8,234.8 L931.9,233.7 C932.2,233.6 932.4,233.3 932.4,232.9 L931.2,228 L931.1,227.4 C930.7,226.1 929.8,224.8 928.5,224" id="Shape" fill="#767676"></path>
        <path d="M470.5,224 L470.5,223.9 L470.4,223.9 C469.1,223.1 467.5,222.8 466.1,223.1 L465.5,223.2 L460.5,224.3 C460.2,224.4 459.9,224.7 460,225.1 L461.1,230 L461.3,230.5 C461.7,231.9 462.5,233.2 463.9,234 C463.9,234 463.9,234 463.9,234.1 L463.9,234.1 C465.3,234.9 466.8,235.1 468.3,234.9 L468.8,234.8 L473.9,233.7 C474.2,233.6 474.4,233.3 474.4,232.9 L473.2,228 L473.1,227.4 C472.7,226.1 471.8,224.8 470.5,224" id="Shape" fill="#767676"></path>
        <path d="M211.4,224.3 C211.4,222.3 210.6,220.5 209.4,219.2 L208.9,218.7 L204.3,214.2 C204,213.9 203.4,213.9 203.1,214.2 L198.5,218.7 L198,219.2 C196.8,220.5 196,222.3 196,224.3 L196,224.3 C196,224.3 196,224.3 196,224.4 C196,226.3 196.8,228.1 198,229.4 L198.5,229.9 L203.1,234.4 C203.4,234.7 204,234.7 204.3,234.4 L208.9,229.9 L209.4,229.4 C210.6,228.1 211.4,226.3 211.4,224.4 L211.4,224.3 L211.4,224.3" id="Shape" fill="#767676"></path>
        <path d="M1128.4,224.3 C1128.4,222.3 1127.6,220.5 1126.4,219.2 L1125.9,218.7 L1121.3,214.2 C1121,213.9 1120.4,213.9 1120.1,214.2 L1115.5,218.7 L1115,219.2 C1113.8,220.5 1113,222.3 1113,224.3 L1113,224.3 C1113,224.3 1113,224.3 1113,224.4 C1113,226.3 1113.8,228.1 1115,229.4 L1115.5,229.9 L1120.1,234.4 C1120.4,234.7 1121,234.7 1121.3,234.4 L1125.9,229.9 L1126.4,229.4 C1127.6,228.1 1128.4,226.3 1128.4,224.4 L1128.4,224.3 L1128.4,224.3" id="Shape" fill="#767676"></path>
        <path d="M333.376984,226.604723 L333.376984,219.904723 C333.376984,219.404723 332.976984,219.004723 332.476984,219.004723 L325.576984,219.004723 L324.876984,219.004723 C322.876984,219.104723 320.976984,219.804723 319.476984,221.304723 L319.376984,221.304723 L319.376984,221.404723 C317.876984,222.804723 317.076984,224.704723 316.976984,226.704723 L316.976984,227.404723 L316.976984,234.104723 C316.976984,234.604723 317.376984,235.004723 317.876984,235.004723 L324.776984,235.004723 L325.476984,235.004723 C327.476984,234.904723 329.376984,234.204723 330.876984,232.704723 L330.976984,232.704723 L330.976984,232.604723 C332.476984,231.204723 333.276984,229.304723 333.376984,227.304723 L333.376984,226.604723 Z" id="Shape" fill="#767676" transform="translate(325.176984, 227.004723) scale(-1, -1) translate(-325.176984, -227.004723) "></path>
        <path d="M1359.37698,226.604723 L1359.37698,219.904723 C1359.37698,219.404723 1358.97698,219.004723 1358.47698,219.004723 L1351.57698,219.004723 L1350.87698,219.004723 C1348.87698,219.104723 1346.97698,219.804723 1345.47698,221.304723 L1345.37698,221.304723 L1345.37698,221.404723 C1343.87698,222.804723 1343.07698,224.704723 1342.97698,226.704723 L1342.97698,227.404723 L1342.97698,234.104723 C1342.97698,234.604723 1343.37698,235.004723 1343.87698,235.004723 L1350.77698,235.004723 L1351.47698,235.004723 C1353.47698,234.904723 1355.37698,234.204723 1356.87698,232.704723 L1356.97698,232.704723 L1356.97698,232.604723 C1358.47698,231.204723 1359.27698,229.304723 1359.37698,227.304723 L1359.37698,226.604723 Z" id="Shape" fill="#767676" transform="translate(1351.176984, 227.004723) scale(-1, -1) translate(-1351.176984, -227.004723) "></path>
        <path d="M351.3,235.2 L354.2,234.7 C354.4,234.7 354.5,234.4 354.3,234.3 L352,232.1 C351.9,231.9 351.7,232 351.7,232.2 L351,234.9 C351,235 351.1,235.2 351.3,235.2" id="Shape" fill="#767676"></path>
        <path d="M1234.3,235.2 L1237.2,234.7 C1237.4,234.7 1237.5,234.4 1237.3,234.3 L1235,232.1 C1234.9,231.9 1234.7,232 1234.7,232.2 L1234,234.9 C1234,235 1234.1,235.2 1234.3,235.2" id="Shape" fill="#767676"></path>
        <path d="M809.3,235.2 L812.2,234.7 C812.4,234.7 812.5,234.4 812.3,234.3 L810,232.1 C809.9,231.9 809.7,232 809.7,232.2 L809,234.9 C809,235 809.1,235.2 809.3,235.2" id="Shape" fill="#767676"></path>
        <path d="M279.9,225.1 L273,231.8 L275.9,234.7 L278.8,231.8 C278.8,231.8 279.2,231.4 279.8,230.9 C280.2,230.4 280.5,229.8 280.5,229.2 L280.5,225.4 C280.5,225 280.1,224.9 279.9,225.1" id="Shape" fill="#767676"></path>
        <path d="M1196.9,225.1 L1190,231.8 L1192.9,234.7 L1195.8,231.8 C1195.8,231.8 1196.2,231.4 1196.8,230.9 C1197.2,230.4 1197.5,229.8 1197.5,229.2 L1197.5,225.4 C1197.5,225 1197.1,224.9 1196.9,225.1" id="Shape" fill="#767676"></path>
        <path d="M127.845243,217.554689 L118.845243,208.754689 L118.845243,208.754689 L112.045243,202.054689 C111.845243,201.854689 111.445243,202.054689 111.445243,202.354689 L111.445243,206.054689 C111.445243,206.754689 111.745243,207.354689 112.145243,207.854689 C112.645243,208.354689 113.045243,208.754689 113.045243,208.754689 L115.945243,211.554689 L115.945243,211.554689 L122.145243,217.554689 L110.545243,228.754689 L98.845243,217.254689 L100.445243,215.854689 L110.445243,225.654689 L118.745243,217.454689 L111.045243,209.854689 C110.745243,209.554689 110.245243,209.554689 109.945243,209.854689 L106.545243,213.154689 L109.445243,215.954689 C110.045243,216.454689 110.945243,216.454689 111.545243,215.954689 L113.045243,217.454689 L110.445243,219.954689 L100.545243,210.254689 L93.045243,217.254689 L110.445243,234.354689 L127.845243,217.554689 Z" id="Shape" fill="#767676" transform="translate(110.445243, 218.164436) scale(-1, -1) translate(-110.445243, -218.164436) "></path>
        <path d="M1044.84524,217.554689 L1035.84524,208.754689 L1035.84524,208.754689 L1029.04524,202.054689 C1028.84524,201.854689 1028.44524,202.054689 1028.44524,202.354689 L1028.44524,206.054689 C1028.44524,206.754689 1028.74524,207.354689 1029.14524,207.854689 C1029.64524,208.354689 1030.04524,208.754689 1030.04524,208.754689 L1032.94524,211.554689 L1032.94524,211.554689 L1039.14524,217.554689 L1027.54524,228.754689 L1015.84524,217.254689 L1017.44524,215.854689 L1027.44524,225.654689 L1035.74524,217.454689 L1028.04524,209.854689 C1027.74524,209.554689 1027.24524,209.554689 1026.94524,209.854689 L1023.54524,213.154689 L1026.44524,215.954689 C1027.04524,216.454689 1027.94524,216.454689 1028.54524,215.954689 L1030.04524,217.454689 L1027.44524,219.954689 L1017.54524,210.254689 L1010.04524,217.254689 L1027.44524,234.354689 L1044.84524,217.554689 Z" id="Shape" fill="#767676" transform="translate(1027.445243, 218.164436) scale(-1, -1) translate(-1027.445243, -218.164436) "></path>
        <path d="M432.6,234.7 L432.7,234.8 L439.7,227.9 C439.8,227.9 440.3,227.3 441,226.7 C441.5,226.2 441.8,225.6 441.8,224.9 L441.8,207.6 L437.1,203.1 C435.7,201.6 433.3,201.6 431.9,203.1 L439.1,210.2 L433.5,215.7 L432.6,216.6 C430.4,218.9 429,222.1 429,225.5 L429,225.6 L429,225.7 C429,229.2 430.4,232.3 432.6,234.7" id="Shape" fill="#767676"></path>
        <path d="M1316.6,234.7 L1316.7,234.8 L1323.7,227.9 C1323.8,227.9 1324.3,227.3 1325,226.7 C1325.5,226.2 1325.8,225.6 1325.8,224.9 L1325.8,207.6 L1321.1,203.1 C1319.7,201.6 1317.3,201.6 1315.9,203.1 L1323.1,210.2 L1317.5,215.7 L1316.6,216.6 C1314.4,218.9 1313,222.1 1313,225.5 L1313,225.6 L1313,225.7 C1313,229.2 1314.4,232.3 1316.6,234.7" id="Shape" fill="#767676"></path>
        <path d="M891.6,234.7 L891.7,234.8 L898.7,227.9 C898.8,227.9 899.3,227.3 900,226.7 C900.5,226.2 900.8,225.6 900.8,224.9 L900.8,207.6 L896.1,203.1 C894.7,201.6 892.3,201.6 890.9,203.1 L898.1,210.2 L892.5,215.7 L891.6,216.6 C889.4,218.9 888,222.1 888,225.5 L888,225.6 L888,225.7 C888,229.2 889.4,232.3 891.6,234.7" id="Shape" fill="#767676"></path>
        <path d="M372.5,233.7 L377.5,234.8 L378.1,234.9 C379.5,235.1 381.1,234.9 382.4,234.1 L382.5,234.1 L382.5,234 C383.8,233.2 384.7,231.9 385.1,230.5 L385.2,230 L386.4,225.1 C386.4,224.7 386.2,224.4 385.9,224.3 L380.8,223.2 L380.3,223.1 C378.8,222.8 377.3,223.1 375.9,223.9 L375.9,223.9 L375.9,224 C374.5,224.8 373.7,226.1 373.3,227.4 L373.1,228 L372,232.9 C371.9,233.3 372.2,233.6 372.5,233.7" id="Shape" fill="#767676"></path>
        <path d="M1255.5,233.7 L1260.5,234.8 L1261.1,234.9 C1262.5,235.1 1264.1,234.9 1265.4,234.1 L1265.5,234.1 L1265.5,234 C1266.8,233.2 1267.7,231.9 1268.1,230.5 L1268.2,230 L1269.4,225.1 C1269.4,224.7 1269.2,224.4 1268.9,224.3 L1263.8,223.2 L1263.3,223.1 C1261.8,222.8 1260.3,223.1 1258.9,223.9 L1258.9,223.9 L1258.9,224 C1257.5,224.8 1256.7,226.1 1256.3,227.4 L1256.1,228 L1255,232.9 C1254.9,233.3 1255.2,233.6 1255.5,233.7" id="Shape" fill="#767676"></path>
        <path d="M830.5,233.7 L835.5,234.8 L836.1,234.9 C837.5,235.1 839.1,234.9 840.4,234.1 L840.5,234.1 L840.5,234 C841.8,233.2 842.7,231.9 843.1,230.5 L843.2,230 L844.4,225.1 C844.4,224.7 844.2,224.4 843.9,224.3 L838.8,223.2 L838.3,223.1 C836.8,222.8 835.3,223.1 833.9,223.9 L833.9,223.9 L833.9,224 C832.5,224.8 831.7,226.1 831.3,227.4 L831.1,228 L830,232.9 C829.9,233.3 830.2,233.6 830.5,233.7" id="Shape" fill="#767676"></path>
        <path d="M405.004477,234.246432 L405.204477,234.446432 C405.804477,234.946432 406.504477,235.246432 407.404477,235.246432 L407.404477,235.246432 L407.404477,235.246432 C408.304477,235.246432 409.004477,234.946432 409.604477,234.446432 L409.804477,234.246432 L411.704477,232.346432 C411.804477,232.246432 411.804477,232.046432 411.704477,231.946432 L409.804477,230.046432 L409.604477,229.846432 C409.004477,229.346432 408.304477,229.046432 407.404477,229.046432 L407.404477,229.046432 L407.404477,229.046432 C406.504477,229.046432 405.804477,229.346432 405.204477,229.846432 L405.004477,230.046432 L403.104477,231.946432 C403.004477,232.046432 403.004477,232.246432 403.104477,232.346432 L405.004477,234.246432 Z" id="Shape" fill="#767676" transform="translate(407.404477, 232.146432) scale(-1, -1) translate(-407.404477, -232.146432) "></path>
        <path d="M1289.00448,234.246432 L1289.20448,234.446432 C1289.80448,234.946432 1290.50448,235.246432 1291.40448,235.246432 L1291.40448,235.246432 L1291.40448,235.246432 C1292.30448,235.246432 1293.00448,234.946432 1293.60448,234.446432 L1293.80448,234.246432 L1295.70448,232.346432 C1295.80448,232.246432 1295.80448,232.046432 1295.70448,231.946432 L1293.80448,230.046432 L1293.60448,229.846432 C1293.00448,229.346432 1292.30448,229.046432 1291.40448,229.046432 L1291.40448,229.046432 L1291.40448,229.046432 C1290.50448,229.046432 1289.80448,229.346432 1289.20448,229.846432 L1289.00448,230.046432 L1287.10448,231.946432 C1287.00448,232.046432 1287.00448,232.246432 1287.10448,232.346432 L1289.00448,234.246432 Z" id="Shape" fill="#767676" transform="translate(1291.404477, 232.146432) scale(-1, -1) translate(-1291.404477, -232.146432) "></path>
        <path d="M864.004477,234.246432 L864.204477,234.446432 C864.804477,234.946432 865.504477,235.246432 866.404477,235.246432 L866.404477,235.246432 L866.404477,235.246432 C867.304477,235.246432 868.004477,234.946432 868.604477,234.446432 L868.804477,234.246432 L870.704477,232.346432 C870.804477,232.246432 870.804477,232.046432 870.704477,231.946432 L868.804477,230.046432 L868.604477,229.846432 C868.004477,229.346432 867.304477,229.046432 866.404477,229.046432 L866.404477,229.046432 L866.404477,229.046432 C865.504477,229.046432 864.804477,229.346432 864.204477,229.846432 L864.004477,230.046432 L862.104477,231.946432 C862.004477,232.046432 862.004477,232.246432 862.104477,232.346432 L864.004477,234.246432 Z" id="Shape" fill="#767676" transform="translate(866.404477, 232.146432) scale(-1, -1) translate(-866.404477, -232.146432) "></path>
        <path d="M250.615741,229.011514 C250.615741,228.211514 251.215741,227.611514 252.115741,227.611514 L252.115741,227.511514 L252.115741,227.611514 C253.015741,227.611514 253.615741,228.211514 253.615741,229.011514 C253.615741,229.011514 253.615741,229.011514 253.615741,229.111514 C253.615741,229.511514 253.515741,229.811514 253.215741,230.111514 L253.115741,230.211514 L252.215741,231.111514 L252.015741,231.111514 L251.115741,230.211514 L251.015741,230.111514 C250.715741,229.811514 250.615741,229.511514 250.615741,229.111514 L250.615741,229.011514 L250.615741,229.011514 Z M254.915741,227.511514 L252.415741,225.111514 C252.215741,224.911514 252.015741,224.911514 251.815741,225.111514 L249.315741,227.511514 L249.115741,227.711514 C248.415741,228.411514 248.015741,229.411514 248.015741,230.411514 L248.015741,230.611514 C248.115741,232.711514 249.815741,234.411514 252.015741,234.411514 C252.015741,234.511514 252.115741,234.511514 252.115741,234.511514 C252.115741,234.511514 252.215741,234.511514 252.215741,234.411514 C254.415741,234.411514 256.115741,232.711514 256.215741,230.611514 L256.215741,230.411514 C256.215741,229.411514 255.815741,228.411514 255.115741,227.711514 L254.915741,227.511514 Z" id="Shape" fill="#767676" transform="translate(252.115741, 229.736514) scale(-1, -1) translate(-252.115741, -229.736514) "></path>
        <path d="M1167.61574,229.011514 C1167.61574,228.211514 1168.21574,227.611514 1169.11574,227.611514 L1169.11574,227.511514 L1169.11574,227.611514 C1170.01574,227.611514 1170.61574,228.211514 1170.61574,229.011514 C1170.61574,229.011514 1170.61574,229.011514 1170.61574,229.111514 C1170.61574,229.511514 1170.51574,229.811514 1170.21574,230.111514 L1170.11574,230.211514 L1169.21574,231.111514 L1169.01574,231.111514 L1168.11574,230.211514 L1168.01574,230.111514 C1167.71574,229.811514 1167.61574,229.511514 1167.61574,229.111514 L1167.61574,229.011514 L1167.61574,229.011514 Z M1171.91574,227.511514 L1169.41574,225.111514 C1169.21574,224.911514 1169.01574,224.911514 1168.81574,225.111514 L1166.31574,227.511514 L1166.11574,227.711514 C1165.41574,228.411514 1165.01574,229.411514 1165.01574,230.411514 L1165.01574,230.611514 C1165.11574,232.711514 1166.81574,234.411514 1169.01574,234.411514 C1169.01574,234.511514 1169.11574,234.511514 1169.11574,234.511514 C1169.11574,234.511514 1169.21574,234.511514 1169.21574,234.411514 C1171.41574,234.411514 1173.11574,232.711514 1173.21574,230.611514 L1173.21574,230.411514 C1173.21574,229.411514 1172.81574,228.411514 1172.11574,227.711514 L1171.91574,227.511514 Z" id="Shape" fill="#767676" transform="translate(1169.115741, 229.736514) scale(-1, -1) translate(-1169.115741, -229.736514) "></path>
        <path d="M166,211.9 L175,220.8 C175.5,221.2 175.5,221.9 175,222.3 C174.6,222.7 173.8,222.7 173.4,222.3 L166,215 L166,219 L175.3,228.1 C175.7,228.5 175.8,229.1 175.5,229.5 C175.1,230.1 174.2,230.2 173.7,229.7 L166,222.1 L166,225 C166,225.6 166.3,226.2 166.7,226.7 C167.4,227.3 167.9,227.9 168,227.9 L175,234.8 L175.1,234.7 C177.3,232.3 178.7,229.2 178.7,225.7 L178.7,225.6 L178.7,225.5 C178.7,222 177.3,218.9 175.1,216.5 L174.2,215.6 L168.6,210.2 L175.9,203.1 C174.4,201.6 172.1,201.6 170.6,203.1 L166,207.6 L166,211.9" id="Shape" fill="#767676"></path>
        <path d="M1083,211.9 L1092,220.8 C1092.5,221.2 1092.5,221.9 1092,222.3 C1091.6,222.7 1090.8,222.7 1090.4,222.3 L1083,215 L1083,219 L1092.3,228.1 C1092.7,228.5 1092.8,229.1 1092.5,229.5 C1092.1,230.1 1091.2,230.2 1090.7,229.7 L1083,222.1 L1083,225 C1083,225.6 1083.3,226.2 1083.7,226.7 C1084.4,227.3 1084.9,227.9 1085,227.9 L1092,234.8 L1092.1,234.7 C1094.3,232.3 1095.7,229.2 1095.7,225.7 L1095.7,225.6 L1095.7,225.5 C1095.7,222 1094.3,218.9 1092.1,216.5 L1091.2,215.6 L1085.6,210.2 L1092.9,203.1 C1091.4,201.6 1089.1,201.6 1087.6,203.1 L1083,207.6 L1083,211.9" id="Shape" fill="#767676"></path>
        <path d="M35.004477,234.246432 L35.204477,234.446432 C35.804477,234.946432 36.504477,235.246432 37.404477,235.246432 L37.404477,235.246432 L37.404477,235.246432 C38.304477,235.246432 39.004477,234.946432 39.604477,234.446432 L39.804477,234.246432 L41.704477,232.346432 C41.804477,232.246432 41.804477,232.046432 41.704477,231.946432 L39.804477,230.046432 L39.604477,229.846432 C39.004477,229.346432 38.304477,229.046432 37.404477,229.046432 L37.404477,229.046432 L37.404477,229.046432 C36.504477,229.046432 35.804477,229.346432 35.204477,229.846432 L35.004477,230.046432 L33.104477,231.946432 C33.004477,232.046432 33.004477,232.246432 33.104477,232.346432 L35.004477,234.246432 Z" id="Shape" fill="#767676" transform="translate(37.404477, 232.146432) scale(-1, -1) translate(-37.404477, -232.146432) "></path>
        <path d="M952.004477,234.246432 L952.204477,234.446432 C952.804477,234.946432 953.504477,235.246432 954.404477,235.246432 L954.404477,235.246432 L954.404477,235.246432 C955.304477,235.246432 956.004477,234.946432 956.604477,234.446432 L956.804477,234.246432 L958.704477,232.346432 C958.804477,232.246432 958.804477,232.046432 958.704477,231.946432 L956.804477,230.046432 L956.604477,229.846432 C956.004477,229.346432 955.304477,229.046432 954.404477,229.046432 L954.404477,229.046432 L954.404477,229.046432 C953.504477,229.046432 952.804477,229.346432 952.204477,229.846432 L952.004477,230.046432 L950.104477,231.946432 C950.004477,232.046432 950.004477,232.246432 950.104477,232.346432 L952.004477,234.246432 Z" id="Shape" fill="#767676" transform="translate(954.404477, 232.146432) scale(-1, -1) translate(-954.404477, -232.146432) "></path>
        <path d="M493.004477,234.246432 L493.204477,234.446432 C493.804477,234.946432 494.504477,235.246432 495.404477,235.246432 L495.404477,235.246432 L495.404477,235.246432 C496.304477,235.246432 497.004477,234.946432 497.604477,234.446432 L497.804477,234.246432 L499.704477,232.346432 C499.804477,232.246432 499.804477,232.046432 499.704477,231.946432 L497.804477,230.046432 L497.604477,229.846432 C497.004477,229.346432 496.304477,229.046432 495.404477,229.046432 L495.404477,229.046432 L495.404477,229.046432 C494.504477,229.046432 493.804477,229.346432 493.204477,229.846432 L493.004477,230.046432 L491.104477,231.946432 C491.004477,232.046432 491.004477,232.246432 491.104477,232.346432 L493.004477,234.246432 Z" id="Shape" fill="#767676" transform="translate(495.404477, 232.146432) scale(-1, -1) translate(-495.404477, -232.146432) "></path>
        <path d="M673.8,84.8 L673.8,87.1 C673.7,87.5 674.2,87.7 674.5,87.5 L675.6,86.3 C675.8,86.2 675.8,85.9 675.7,85.8 L674.6,84.6 C674.3,84.3 673.8,84.4 673.8,84.8" id="Shape" fill="#344E25"></path>
        <path d="M642.2,87.7 C642.2,87.7 642.2,87.7 642.3,87.8 C645.1,90.5 648.7,91.9 652.3,92.1 L653.7,92.1 L666.6,92.1 C667.5,92.1 668.2,91.4 668.2,90.5 L668.2,77.9 L668.2,76.6 C668,73 666.6,69.4 663.8,66.7 C663.8,66.7 663.8,66.7 663.7,66.6 L663.7,66.6 C660.9,63.8 657.3,62.4 653.6,62.3 L652.2,62.3 L639.3,62.3 C638.4,62.3 637.7,63 637.7,63.9 L637.7,76.4 L637.7,77.8 C637.9,81.4 639.3,84.9 642.1,87.6 C642.1,87.7 642.2,87.7 642.2,87.7" id="Shape" fill="#344E25"></path>
        <path d="M655.7,98.2 C655.4,98.2 655.1,98.5 655.2,98.8 L656.5,104.1 C656.6,104.4 657,104.6 657.2,104.3 L661.7,99.9 C662,99.7 661.9,99.2 661.5,99.2 L655.7,98.2 Z" id="Shape" fill="#344E25"></path>
        <path d="M686.2,84.6 L685.3,85.6 C685.2,85.7 685.2,86 685.3,86.1 L686.3,87.1 C686.6,87.3 687,87.1 687,86.8 L687,84.8 C686.9,84.4 686.5,84.3 686.2,84.6" id="Shape" fill="#344E25"></path>
        <path d="M631.2,109.5 C631.2,109.5 631.3,109.5 631.3,109.6 L631.4,109.6 C633.9,111.2 636.7,111.6 639.4,111.1 L640.5,110.9 L649.8,108.9 C650.5,108.7 650.9,108.1 650.8,107.4 L648.7,98.3 L648.4,97.3 C647.7,94.7 646.1,92.3 643.6,90.8 C643.5,90.8 643.5,90.7 643.5,90.7 C643.5,90.7 643.5,90.7 643.4,90.7 C640.9,89.1 638.1,88.7 635.4,89.2 L634.3,89.4 L625,91.4 C624.3,91.6 623.9,92.2 624,92.9 L626.1,102 L626.4,103 C627.1,105.6 628.7,108 631.2,109.5" id="Shape" fill="#344E25"></path>
        <path d="M666,62.3 C666,65.9 667.5,69.2 669.8,71.7 L670.7,72.6 L679.3,81 C679.9,81.5 680.8,81.5 681.4,81 L690,72.6 L690.9,71.7 C693.2,69.2 694.7,65.9 694.7,62.3 L694.7,62.2 L694.7,62.1 C694.7,58.5 693.2,55.2 690.9,52.7 L690,51.8 L681.4,43.4 C680.8,42.9 679.9,42.9 679.3,43.4 L670.7,51.8 L669.8,52.7 C667.5,55.2 666,58.5 666,62.1 L666,62.2 L666,62.3" id="Shape" fill="#344E25"></path>
        <path d="M692.6,77.9 L692.6,90.5 C692.6,91.4 693.3,92.1 694.2,92.1 L707,92.1 L708.5,92.1 C712.1,91.9 715.7,90.5 718.5,87.8 L718.6,87.7 C718.6,87.7 718.6,87.7 718.7,87.6 C721.5,84.9 722.9,81.4 723.1,77.8 L723.1,76.4 L723.1,63.9 C723.1,63 722.3,62.3 721.4,62.3 L708.6,62.3 L707.2,62.3 C703.5,62.4 699.9,63.8 697.1,66.6 C697.1,66.6 697.1,66.6 697,66.6 L697,66.7 C694.2,69.4 692.7,73 692.6,76.6 L692.6,77.9 Z" id="Shape" fill="#344E25"></path>
        <path d="M705.1,98.2 L699.6,99.1 C699.3,99.2 699.1,99.6 699.4,99.8 L703.6,104 C703.9,104.2 704.3,104.1 704.4,103.8 L705.6,98.8 C705.7,98.5 705.4,98.2 705.1,98.2" id="Shape" fill="#344E25"></path>
        <path d="M683.3,147.7 L696.1,135.2 L690.7,129.9 L685.2,135.2 C685.2,135.2 684.5,135.9 683.5,136.9 C682.6,137.8 682.1,138.9 682.1,140.1 L682.1,147.2 C682.1,147.8 682.9,148.1 683.3,147.7" id="Shape" fill="#344E25"></path>
        <path d="M648,118.7 L664.8,135.1 L664.8,135.1 L677.5,147.5 C677.9,147.9 678.6,147.6 678.6,147.1 L678.6,140.1 C678.6,138.9 678.1,137.7 677.3,136.8 C676.4,136 675.6,135.2 675.6,135.2 L670.2,129.9 L670.2,129.9 L658.7,118.7 L680.4,97.9 L702.1,119.2 L699.1,122 L680.5,103.7 L664.9,118.9 L679.3,133.1 C679.9,133.7 680.9,133.7 681.5,133.1 L687.7,127 L682.4,121.8 C681.3,120.7 679.6,120.7 678.5,121.7 L675.6,118.9 L680.5,114.2 L699,132.3 L713,119.4 L680.4,87.5 L648,118.7 Z" id="Shape" fill="#344E25"></path>
        <path d="M699.2,138.2 L699,138.1 L685.9,150.9 C685.9,150.9 684.8,152 683.5,153.2 C682.6,154.1 682.1,155.3 682.1,156.5 L682.1,188.7 L690.7,197.1 C693.5,199.8 697.9,199.8 700.6,197.1 L687.1,183.9 L697.5,173.7 L699.2,172 C703.3,167.6 705.9,161.8 705.9,155.3 L705.9,155.1 L705.9,155 C705.9,148.5 703.3,142.7 699.2,138.2" id="Shape" fill="#344E25"></path>
        <path d="M735.8,91.4 L726.4,89.4 L725.4,89.2 C722.7,88.7 719.8,89.1 717.3,90.7 L717.3,90.7 L717.2,90.8 C714.7,92.3 713.1,94.7 712.4,97.3 L712.1,98.3 L710,107.4 C709.9,108.1 710.3,108.7 710.9,108.9 L720.3,110.9 L721.4,111.1 C724.1,111.6 726.9,111.2 729.4,109.6 L729.5,109.6 C729.5,109.5 729.5,109.5 729.6,109.5 C732.1,108 733.7,105.6 734.4,103 L734.7,102 L736.8,92.9 C736.9,92.2 736.5,91.6 735.8,91.4" id="Shape" fill="#344E25"></path>
        <path d="M729,114.8 L728.6,114.4 C727.6,113.5 726.2,112.9 724.6,112.9 L724.6,112.9 L724.5,112.9 C723,112.9 721.6,113.5 720.5,114.4 L720.1,114.8 L716.5,118.3 C716.3,118.5 716.3,118.9 716.5,119.2 L720.1,122.6 L720.5,123 C721.6,124 723,124.6 724.5,124.6 L724.6,124.6 L724.6,124.6 C726.2,124.6 727.6,124 728.6,123 L729,122.6 L732.6,119.2 C732.8,118.9 732.8,118.5 732.6,118.3 L729,114.8 Z" id="Shape" fill="#344E25"></path>
        <path d="M683.3,205.3 C683.3,206.8 682.1,208 680.5,208 L680.5,208 L680.4,208 C678.8,208 677.6,206.8 677.6,205.3 L677.6,205.2 C677.6,204.5 677.9,203.8 678.3,203.3 L678.5,203.1 L680.2,201.5 C680.4,201.3 680.5,201.3 680.7,201.5 L682.4,203.1 L682.6,203.3 C683,203.8 683.3,204.5 683.3,205.2 L683.3,205.3 L683.3,205.3 Z M685.6,199.9 L681,195.4 C680.7,195.1 680.2,195.1 679.9,195.4 L675.3,199.9 L674.8,200.4 C673.6,201.7 672.8,203.4 672.8,205.4 L672.8,205.6 C672.9,209.6 676.2,212.7 680.2,212.9 L680.5,212.9 L680.7,212.9 C684.7,212.7 688,209.6 688.1,205.6 L688.1,205.4 C688.1,203.4 687.3,201.7 686.1,200.4 L685.6,199.9 Z" id="Shape" fill="#344E25"></path>
        <path d="M678.6,180.6 L661.8,164.2 C660.9,163.3 661,162 661.9,161.2 C662.7,160.5 664,160.6 664.8,161.4 L678.6,174.9 L678.6,167.4 L661.3,150.5 C660.6,149.8 660.4,148.7 661,147.9 C661.7,146.8 663.3,146.7 664.2,147.6 L678.6,161.7 L678.6,156.3 C678.6,155.1 678.1,153.9 677.3,153.1 C676,151.9 675,150.9 675,150.9 L661.9,138 L661.6,138.2 C657.5,142.7 654.9,148.5 654.9,155 L654.9,155.1 L654.9,155.3 C654.9,161.8 657.5,167.6 661.6,172 L663.3,173.7 L673.7,183.8 L660.2,197.1 C662.9,199.7 667.3,199.7 670,197.1 L678.6,188.6 L678.6,180.6" id="Shape" fill="#344E25"></path>
        <path d="M640.7,114.8 L640.3,114.4 C639.2,113.5 637.8,112.9 636.3,112.9 L636.2,112.9 L636.2,112.9 C634.6,112.9 633.2,113.5 632.2,114.4 L631.8,114.8 L628.2,118.3 C628,118.5 628,118.9 628.2,119.2 L631.8,122.6 L632.2,123 C633.2,124 634.6,124.6 636.2,124.6 L636.2,124.6 L636.3,124.6 C637.8,124.6 639.2,124 640.3,123 L640.7,122.6 L644.2,119.2 C644.5,118.9 644.5,118.5 644.2,118.3 L640.7,114.8 Z" id="Shape" fill="#344E25"></path>
    </g>
</svg>