
<svg width="22px" height="22px" viewBox="0 0 22 22" version="1.1" xmlns="http://www.w3.org/2000/svg" xmlns:xlink="http://www.w3.org/1999/xlink">
    <!-- Generator: Sketch 41.2 (35397) - http://www.bohemiancoding.com/sketch -->
    <desc>Created by AntonioQM - antonioqm.com -  with Sketch.</desc>
    <defs></defs>
    <path d="M8.66666667,14.6666667 C5.34666667,14.6666667 2.66666667,11.9866667 2.66666667,8.66666667 C2.66666667,5.34666667 5.34666667,2.66666667 8.66666667,2.66666667 C11.9866667,2.66666667 14.6666667,5.34666667 14.6666667,8.66666667 C14.6666667,11.9866667 11.9866667,14.6666667 8.66666667,14.6666667 L8.66666667,14.6666667 Z M16.6666667,14.6666667 L15.6133333,14.6666667 L15.24,14.3053333 C16.5466667,12.7866667 17.3333333,10.8133333 17.3333333,8.66666667 C17.3333333,3.88 13.4533333,0 8.66666667,0 C3.88,0 0,3.88 0,8.66666667 C0,13.4533333 3.88,17.3333333 8.66666667,17.3333333 C10.8133333,17.3333333 12.7866667,16.5466667 14.3066667,15.24 L14.6666667,15.6133333 L14.6666667,16.6666667 L19.3767904,21.2780762 L21.363457,19.2927428 L16.6666667,14.6666667 Z" id="Page-1" stroke="none" fill="#C1C1C1" fill-rule="evenodd"></path>
</svg>